HIERARCHY
ROOT Hips
{
    OFFSET 0.000000 0.000000 0.000000
    CHANNELS 6 Xposition Yposition Zposition Zrotation Xrotation Yrotation
    JOINT Spine
    {
        OFFSET -0.000000 7.675621 0.000000
        CHANNELS 3 Zrotation Xrotation Yrotation
        JOINT Spine1
        {
            OFFSET -0.000000 18.989058 0.000000
            CHANNELS 3 Zrotation Xrotation Yrotation
            JOINT Neck
            {
                OFFSET -0.000000 20.861160 0.000000
                CHANNELS 3 Zrotation Xrotation Yrotation
                JOINT Head
                {
                    OFFSET -0.000000 14.508796 1.872102
                    CHANNELS 3 Zrotation Xrotation Yrotation
                    End Site
                    {
                        OFFSET -0.000000 18.721025 0.000000
                    }
                }
            }
            JOINT LeftShoulder
            {
                OFFSET 3.803890 16.435163 -0.376809
                CHANNELS 3 Zrotation Xrotation Yrotation
                JOINT LeftArm
                {
                    OFFSET 13.491586 0.000000 0.000000
                    CHANNELS 3 Zrotation Xrotation Yrotation
                    JOINT LeftForeArm
                    {
                        OFFSET 26.595486 0.000000 0.000000
                        CHANNELS 3 Zrotation Xrotation Yrotation
                        JOINT LeftHand
                        {
                            OFFSET 27.333027 0.000000 0.000000
                            CHANNELS 3 Zrotation Xrotation Yrotation
                            End Site
                            {
                                OFFSET 14.040770 0.000000 0.000000
                            }
                        }
                    }
                }
            }
            JOINT RightShoulder
            {
                OFFSET -3.655588 16.435163 -0.376809
                CHANNELS 3 Zrotation Xrotation Yrotation
                JOINT RightArm
                {
                    OFFSET -13.491586 0.000000 0.000000
                    CHANNELS 3 Zrotation Xrotation Yrotation
                    JOINT RightForeArm
                    {
                        OFFSET -26.595486 0.000000 0.000000
                        CHANNELS 3 Zrotation Xrotation Yrotation
                        JOINT RightHand
                        {
                            OFFSET -27.333027 0.000000 0.000000
                            CHANNELS 3 Zrotation Xrotation Yrotation
                            End Site
                            {
                                OFFSET -14.040770 0.000000 0.000000
                            }
                        }
                    }
                }
            }
        }
    }
    JOINT LeftUpLeg
    {
        OFFSET 9.360513 0.000000 0.000000
        CHANNELS 3 Zrotation Xrotation Yrotation
        JOINT LeftLeg
        {
            OFFSET -0.000000 -38.119110 0.000000
            CHANNELS 3 Zrotation Xrotation Yrotation
            JOINT LeftFoot
            {
                OFFSET -0.000000 -45.088081 0.000000
                CHANNELS 3 Zrotation Xrotation Yrotation
                JOINT LeftToeBase
                {
                    OFFSET -0.000000 -6.084333 14.040770
                    CHANNELS 3 Zrotation Xrotation Yrotation
                    End Site
                    {
                        OFFSET -0.000000 0.000000 3.744205
                    }
                }
            }
        }
    }
    JOINT RightUpLeg
    {
        OFFSET -9.360513 0.000000 0.000000
        CHANNELS 3 Zrotation Xrotation Yrotation
        JOINT RightLeg
        {
            OFFSET -0.000000 -38.119110 0.000000
            CHANNELS 3 Zrotation Xrotation Yrotation
            JOINT RightFoot
            {
                OFFSET -0.000000 -45.088081 0.000000
                CHANNELS 3 Zrotation Xrotation Yrotation
                JOINT RightToeBase
                {
                    OFFSET -0.000000 -6.084333 14.040770
                    CHANNELS 3 Zrotation Xrotation Yrotation
                    End Site
                    {
                        OFFSET -0.000000 0.000000 3.744205
                    }
                }
            }
        }
    }
}
MOTION
Frames:    5
Frame Time:    0.008333
105.277824    85.983452    3.343894    -4.408931    -4.773766    -96.920143    -6.384212    -4.291517    5.878732    0.956901    4.109591    2.004256    1.799586    8.028890    11.646547    -5.951711    -8.343026    12.721960    4.178442    14.680223    -0.413412    -62.232899    43.821533    -20.213556    -3.384980    -8.261690    -13.570597    -16.832396    -9.126261    3.190762    -4.051319    12.499582    -7.899639    56.966118    42.160995    24.920029    -1.205773    -11.589651    21.542160    12.974204    -12.031157    -5.977378    -4.623850    -6.220206    -11.602035    -7.550602    20.237745    4.720599    14.237777    -5.975341    16.925554    0.000000    0.000000    0.000000    -11.953415    -12.622201    4.496235    28.434004    69.436905    -29.270687    0.320137    0.779440    -14.777667    0.000000    0.000000    0.000000    
104.540649    86.041771    3.368124    -4.379712    -4.558638    -96.636581    -6.258566    -4.166759    5.528808    1.019736    4.258348    1.880183    1.952462    8.087029    11.664364    -6.090438    -8.771987    12.757039    4.334074    14.555868    -0.704066    -61.484356    44.410168    -20.712427    -3.330182    -8.726721    -14.731931    -16.484497    -9.611651    3.217964    -3.900345    12.522853    -8.020867    57.229786    42.001274    24.714352    -1.268599    -11.068223    21.340094    13.062097    -11.529878    -6.192736    -4.550183    -5.582011    -11.434573    -7.287866    20.052818    4.330842    14.407872    -6.262608    16.939226    0.000000    0.000000    0.000000    -11.556324    -13.928260    4.347610    28.786476    69.680473    -29.403872    0.002553    0.260933    -14.745214    0.000000    0.000000    0.000000    
103.812660    86.089638    3.391632    -4.328174    -4.355100    -96.330902    -6.125931    -4.017142    5.189044    1.049186    4.317888    1.761032    2.077149    8.152182    11.672522    -6.100576    -9.122780    12.773838    4.525971    14.488388    -0.998127    -60.664154    44.942318    -21.321613    -3.257442    -9.161966    -15.848638    -16.049742    -10.061357    3.256145    -3.747000    12.582465    -8.150209    57.579243    41.773880    24.396891    -1.264128    -10.718603    21.067287    12.950709    -11.172357    -6.135962    -4.481019    -4.961608    -11.149056    -6.966723    19.904135    2.561983    14.797263    -6.264296    18.162708    0.000000    0.000000    0.000000    -11.196516    -15.140629    4.246744    28.948797    69.609306    -29.220234    -0.439948    -0.459971    -14.613105    0.000000    0.000000    0.000000    
103.081444    86.127869    3.407866    -4.279438    -4.168881    -95.985657    -6.029583    -3.882389    4.839862    1.097273    4.408247    1.638455    2.402952    8.214924    11.632406    -6.439134    -9.417013    12.799717    4.711983    14.335703    -1.303174    -59.890194    45.434330    -21.873697    -3.128192    -9.552907    -16.948788    -15.604337    -10.460567    3.327225    -3.589502    12.639421    -8.328077    57.886623    41.653366    24.116325    -1.276468    -10.522071    20.872173    12.662115    -10.986672    -6.373727    -4.337654    -4.361141    -10.918590    -6.822663    19.669674    3.692458    14.831897    -6.949036    16.595385    0.000000    0.000000    0.000000    -10.857793    -16.353527    4.093498    28.712168    69.547386    -28.446014    -0.903454    -1.191157    -14.303990    0.000000    0.000000    0.000000    
102.351166    86.162598    3.428553    -4.229354    -3.990742    -95.623100    -5.896758    -3.726243    4.479542    1.095709    4.447513    1.513915    2.519729    8.224966    11.652803    -6.389258    -9.621553    12.831217    4.887302    14.190750    -1.577296    -59.132843    45.862423    -22.436493    -2.907498    -9.925705    -17.965967    -15.232943    -10.823054    3.387493    -3.500870    12.624073    -8.477164    58.409527    41.454662    23.622129    -1.148180    -10.492170    20.673683    12.095145    -10.949815    -6.365757    -4.232351    -3.752140    -10.636846    -6.590312    19.464031    3.404434    14.998598    -7.307690    16.332497    0.000000    0.000000    0.000000    -10.523520    -17.447763    4.090415    28.423162    69.077644    -27.598305    -1.398582    -1.956130    -14.047031    0.000000    0.000000    0.000000    
